<svg width="24" height="24" fill="none" xmlns="http://www.w3.org/2000/svg"><path d="M2.664 2.063 C 2.436 2.146,2.257 2.297,2.131 2.511 L 2.020 2.700 2.020 6.500 L 2.020 10.300 2.131 10.489 C 2.192 10.592,2.301 10.723,2.374 10.778 C 2.675 11.008,2.531 11.000,6.498 11.000 C 10.604 11.000,10.387 11.015,10.701 10.701 C 11.015 10.387,11.000 10.604,11.000 6.500 C 11.000 2.396,11.015 2.613,10.701 2.299 C 10.386 1.984,10.606 2.000,6.483 2.003 C 3.408 2.005,2.795 2.015,2.664 2.063 M13.664 2.063 C 13.436 2.146,13.257 2.297,13.131 2.511 L 13.020 2.700 13.020 6.500 L 13.020 10.300 13.131 10.489 C 13.192 10.592,13.301 10.723,13.374 10.778 C 13.675 11.008,13.531 11.000,17.498 11.000 C 21.604 11.000,21.387 11.015,21.701 10.701 C 22.015 10.387,22.000 10.604,22.000 6.500 C 22.000 2.396,22.015 2.613,21.701 2.299 C 21.386 1.984,21.606 2.000,17.483 2.003 C 14.408 2.005,13.795 2.015,13.664 2.063 M9.000 6.500 L 9.000 9.000 6.500 9.000 L 4.000 9.000 4.000 6.500 L 4.000 4.000 6.500 4.000 L 9.000 4.000 9.000 6.500 M20.000 6.500 L 20.000 9.000 17.500 9.000 L 15.000 9.000 15.000 6.500 L 15.000 4.000 17.500 4.000 L 20.000 4.000 20.000 6.500 M2.664 13.063 C 2.436 13.146,2.257 13.297,2.131 13.511 L 2.020 13.700 2.020 17.500 L 2.020 21.300 2.131 21.489 C 2.192 21.592,2.301 21.723,2.374 21.778 C 2.675 22.008,2.531 22.000,6.498 22.000 C 10.604 22.000,10.387 22.015,10.701 21.701 C 11.015 21.387,11.000 21.604,11.000 17.500 C 11.000 13.396,11.015 13.613,10.701 13.299 C 10.386 12.984,10.606 13.000,6.483 13.003 C 3.408 13.005,2.795 13.015,2.664 13.063 M13.664 13.063 C 13.436 13.146,13.257 13.297,13.131 13.511 L 13.020 13.700 13.020 17.500 L 13.020 21.300 13.131 21.489 C 13.192 21.592,13.301 21.723,13.374 21.778 C 13.675 22.008,13.531 22.000,17.498 22.000 C 21.604 22.000,21.387 22.015,21.701 21.701 C 22.015 21.387,22.000 21.604,22.000 17.500 C 22.000 13.396,22.015 13.613,21.701 13.299 C 21.386 12.984,21.606 13.000,17.483 13.003 C 14.408 13.005,13.795 13.015,13.664 13.063 M9.000 17.500 L 9.000 20.000 6.500 20.000 L 4.000 20.000 4.000 17.500 L 4.000 15.000 6.500 15.000 L 9.000 15.000 9.000 17.500 M20.000 17.500 L 20.000 20.000 17.500 20.000 L 15.000 20.000 15.000 17.500 L 15.000 15.000 17.500 15.000 L 20.000 15.000 20.000 17.500 " fill="currentColor" stroke="none" fill-rule="evenodd"/></svg>