<svg width="24" height="24" fill="none" xmlns="http://www.w3.org/2000/svg"><path d="M7.758 2.054 C 7.416 2.147,7.160 2.395,7.061 2.729 C 6.984 2.987,6.985 3.054,7.064 3.323 C 7.124 3.528,7.196 3.609,8.350 4.767 L 9.572 5.995 7.476 6.010 C 5.094 6.028,5.066 6.031,4.337 6.376 C 3.203 6.914,2.466 7.786,2.129 8.989 L 2.020 9.380 2.020 14.000 L 2.020 18.620 2.131 19.017 C 2.552 20.526,3.707 21.608,5.226 21.917 C 5.627 21.999,5.720 22.000,12.000 22.000 C 18.280 22.000,18.373 21.999,18.774 21.917 C 20.291 21.608,21.457 20.515,21.872 19.012 L 21.980 18.620 21.980 14.000 L 21.980 9.380 21.874 8.995 C 21.542 7.796,20.797 6.914,19.663 6.376 C 18.934 6.031,18.906 6.028,16.524 6.010 L 14.428 5.995 15.650 4.767 C 16.804 3.609,16.876 3.528,16.936 3.323 C 17.015 3.053,17.016 2.987,16.938 2.725 C 16.768 2.154,16.088 1.855,15.558 2.119 C 15.436 2.180,14.854 2.732,13.690 3.893 L 12.000 5.579 10.310 3.894 C 9.250 2.836,8.560 2.179,8.460 2.129 C 8.244 2.023,7.978 1.994,7.758 2.054 M18.383 8.043 C 19.151 8.184,19.816 8.849,19.957 9.617 C 20.017 9.948,20.017 18.052,19.957 18.383 C 19.819 19.138,19.170 19.797,18.408 19.956 C 18.109 20.018,5.891 20.018,5.592 19.956 C 4.830 19.797,4.181 19.138,4.043 18.383 C 3.983 18.052,3.983 9.948,4.043 9.617 C 4.180 8.868,4.847 8.187,5.580 8.047 C 5.875 7.991,18.077 7.987,18.383 8.043 M10.080 11.603 C 9.821 11.720,6.760 14.775,6.619 15.058 C 6.427 15.442,6.502 15.865,6.819 16.181 C 7.040 16.403,7.228 16.480,7.547 16.480 C 7.913 16.480,8.043 16.379,9.319 15.102 L 10.498 13.921 11.719 15.135 C 13.027 16.435,13.110 16.499,13.500 16.499 C 13.902 16.499,13.940 16.469,15.671 14.745 C 16.879 13.542,17.307 13.090,17.381 12.942 C 17.631 12.442,17.398 11.827,16.873 11.601 C 16.597 11.482,16.243 11.503,15.992 11.653 C 15.897 11.709,15.298 12.278,14.661 12.917 L 13.501 14.079 12.301 12.882 C 11.421 12.005,11.052 11.663,10.920 11.603 C 10.680 11.495,10.320 11.495,10.080 11.603 " fill="currentColor" stroke="none" fill-rule="evenodd"/></svg>